<svg width="17" height="17" viewBox="0 0 17 17" fill="none" xmlns="http://www.w3.org/2000/svg">
<g clip-path="url(#clip0_1_352)">
<path d="M3.52942 10.5882H2.82354C2.44912 10.5882 2.09003 10.4395 1.82527 10.1747C1.56051 9.90996 1.41177 9.55087 1.41177 9.17645V2.82351C1.41177 2.44908 1.56051 2.09 1.82527 1.82524C2.09003 1.56048 2.44912 1.41174 2.82354 1.41174H9.17648C9.5509 1.41174 9.90999 1.56048 10.1747 1.82524C10.4395 2.09 10.5882 2.44908 10.5882 2.82351V3.52939M7.76472 6.35292H14.1177C14.8974 6.35292 15.5294 6.98499 15.5294 7.76469V14.1176C15.5294 14.8973 14.8974 15.5294 14.1177 15.5294H7.76472C6.98502 15.5294 6.35295 14.8973 6.35295 14.1176V7.76469C6.35295 6.98499 6.98502 6.35292 7.76472 6.35292Z" stroke="url(#paint0_linear_1_352)" stroke-width="1.5" stroke-linecap="round" stroke-linejoin="round"/>
</g>
<defs>
<linearGradient id="paint0_linear_1_352" x1="1.41177" y1="1.41174" x2="17.0245" y2="3.32431" gradientUnits="userSpaceOnUse">
<stop stop-color="#161EF5"/>
<stop offset="1" stop-color="#F40000"/>
</linearGradient>
<clipPath id="clip0_1_352">
<rect width="16.9412" height="16.9412" fill="white"/>
</clipPath>
</defs>
</svg>
