<svg width="18" height="17" viewBox="0 0 18 17" fill="none" xmlns="http://www.w3.org/2000/svg">
<path d="M9.94859 8.74098C9.95097 8.72474 9.95354 8.70833 9.95527 8.69209C9.95701 8.67585 9.95855 8.6587 9.95985 8.64224C9.96266 8.6115 9.96439 8.58059 9.96569 8.55006C9.96569 8.53642 9.96569 8.52299 9.96569 8.50978C9.96569 8.50004 9.96698 8.4905 9.96698 8.48076C9.96698 8.47448 9.96698 8.46885 9.96698 8.46279C9.96698 8.4288 9.96502 8.39461 9.96286 8.36062C9.96286 8.35304 9.96287 8.34609 9.96114 8.33894L9.95961 8.32203C9.95961 8.30752 9.95766 8.29303 9.95636 8.27874C9.95246 8.24518 9.94772 8.21207 9.94209 8.17894L9.94013 8.16853L9.93516 8.14125C9.93235 8.12567 9.92995 8.11011 9.92671 8.09495C9.92021 8.06507 9.91285 8.03559 9.90506 8.00615L9.90073 7.99167L9.89552 7.97237C9.88989 7.9531 9.88515 7.93407 9.87887 7.91523C9.87107 7.89077 9.86198 7.86628 9.85289 7.8416C9.84899 7.83078 9.84445 7.81996 9.84034 7.80957C9.83146 7.78792 9.82343 7.76478 9.81391 7.74292C9.80438 7.72105 9.79573 7.70326 9.78642 7.68356C9.77906 7.66819 9.77125 7.65325 9.76345 7.63831C9.75371 7.61883 9.74398 7.59981 9.73359 7.58054C9.72883 7.57188 9.72493 7.56256 9.71995 7.5539C9.71497 7.54524 9.70847 7.53724 9.70327 7.52858C9.69223 7.50996 9.68011 7.49216 9.66841 7.47398C9.65932 7.45969 9.65022 7.44541 9.64069 7.43069C9.62835 7.41272 9.61581 7.39432 9.60282 7.37635C9.58983 7.35838 9.57314 7.3391 9.5595 7.32048C9.55192 7.3116 9.54543 7.30229 9.53786 7.29341C9.52097 7.27328 9.50431 7.25317 9.48677 7.23368C9.47335 7.21918 9.45907 7.20555 9.44565 7.19039L9.43156 7.17586L9.42159 7.1655C9.39994 7.14385 9.37829 7.1222 9.35534 7.10228C9.34365 7.09145 9.33131 7.08061 9.31897 7.0713C9.31226 7.06503 9.30512 7.0594 9.29733 7.05312L9.28995 7.04662C9.26397 7.02497 9.23778 7.00459 9.21072 6.98467C9.19903 6.97623 9.18669 6.96801 9.17456 6.95956L9.16071 6.95026L9.14295 6.93794C9.11459 6.91911 9.08579 6.9005 9.05635 6.88339C9.05115 6.88015 9.04618 6.87644 9.0412 6.87319C9.03233 6.86821 9.02302 6.86432 9.01414 6.85956L8.98036 6.84116C8.95438 6.82752 8.92839 6.81406 8.90176 6.80194C8.88509 6.79415 8.8682 6.78636 8.85131 6.77921C8.83442 6.77207 8.82102 6.76666 8.8063 6.76082C8.78465 6.75237 8.76473 6.74392 8.7433 6.73634H8.74155V0.0166765H7.48583V1.90978L6.2002 0.624384L5.31253 1.51208L7.48583 3.68512V6.73634H7.48322C7.46157 6.74414 7.44165 6.75237 7.42087 6.76082C7.40593 6.76688 7.39099 6.77251 7.37605 6.779C7.36111 6.7855 7.34227 6.79441 7.32538 6.8022C7.29875 6.81455 7.27279 6.82773 7.24681 6.84137C7.23555 6.84743 7.22515 6.85349 7.21346 6.85977C7.20176 6.86605 7.19527 6.86864 7.18639 6.8734C7.18098 6.87665 7.176 6.88057 7.17059 6.88361C7.14136 6.90114 7.11278 6.91932 7.08398 6.93816L7.06646 6.95005L7.05974 6.95502C7.04546 6.96476 7.03115 6.97407 7.01643 6.98425C6.98915 7.00438 6.96252 7.0256 6.93611 7.04747L6.92897 7.05354L6.92205 7.05894L6.91576 7.06417L4.2744 5.53864L3.47894 2.56971L2.26651 2.89447L2.73718 4.65078L1.09737 3.70378L0.4695 4.79107L2.1091 5.73807L0.353027 6.20829L0.677786 7.42075L3.64631 6.62508L6.28768 8.15035C6.28508 8.16572 6.28205 8.18091 6.27946 8.19607C6.27556 8.2227 6.27207 8.2493 6.26904 8.27636C6.26753 8.29 6.26688 8.30363 6.26558 8.31727C6.26363 8.33892 6.26127 8.36061 6.2604 8.38356C6.2591 8.40932 6.25845 8.43529 6.25845 8.46083C6.25845 8.46711 6.25845 8.47296 6.25845 8.47881C6.25845 8.48465 6.25845 8.4905 6.25845 8.49678C6.25845 8.52232 6.25845 8.54809 6.2604 8.57342C6.26235 8.59875 6.26363 8.61825 6.26558 8.64076C6.26688 8.6544 6.26753 8.66803 6.26904 8.68167C6.27207 8.70809 6.27534 8.73428 6.27946 8.7607C6.28184 8.77629 6.28508 8.79189 6.28768 8.80748L3.64631 10.333L0.677786 9.5375L0.353027 10.75L2.1091 11.2207L0.4695 12.167L1.09737 13.2547L2.73718 12.3077L2.26651 14.0638L3.47894 14.3885L4.2744 11.4198L6.91576 9.89434L6.92247 9.89994L6.92702 9.90385L6.93677 9.91205C6.96275 9.9337 6.98873 9.9543 7.016 9.974C7.03008 9.98439 7.04457 9.9939 7.0593 10.0039L7.06408 10.0071C7.07101 10.0117 7.0775 10.0164 7.08443 10.0212C7.11193 10.0398 7.14028 10.0578 7.16929 10.0747C7.17492 10.0779 7.17968 10.0818 7.1851 10.0848C7.19592 10.0913 7.20674 10.0965 7.21821 10.1026L7.24398 10.1162L7.25482 10.1221C7.2717 10.131 7.28816 10.14 7.30548 10.1481C7.33189 10.161 7.35851 10.1727 7.38514 10.1844L7.39315 10.1881C7.40982 10.1953 7.42629 10.2013 7.44318 10.2078L7.48475 10.2234V13.2735L5.31144 15.4471L6.19911 16.3347L7.48475 15.0491V16.9427H8.74047V15.0491L10.0259 16.3347L10.9135 15.4471L8.74047 13.2735V10.2234L8.75477 10.218L8.78204 10.2078C8.7985 10.2013 8.81517 10.1953 8.83162 10.1881L8.8405 10.1842C8.8667 10.173 8.89312 10.1613 8.9191 10.1485C8.93664 10.14 8.95351 10.1309 8.9704 10.1218L8.98036 10.1164C8.98924 10.1117 8.99789 10.1072 9.00677 10.1022C9.01564 10.0972 9.02843 10.0907 9.03991 10.0846C9.0451 10.0818 9.04986 10.0779 9.05505 10.0744C9.08406 10.0575 9.11222 10.0398 9.14015 10.0212L9.1618 10.0065L9.16677 10.0032C9.18106 9.9937 9.19536 9.98418 9.21008 9.97379C9.23715 9.95408 9.26334 9.93327 9.28932 9.91205L9.29949 9.90322L9.30404 9.89931L9.31054 9.89408L11.953 11.4196L12.7484 14.3883L13.9609 14.0636L13.4902 12.3075L15.1298 13.2545L15.7576 12.1668L9.93796 8.807C9.94186 8.78643 9.94642 8.76371 9.94859 8.74098Z" fill="white"/>
<path d="M13.1816 8.75702C13.4397 8.29601 13.5728 7.77555 13.5676 7.24724C13.5624 6.71893 13.4192 6.20113 13.1521 5.74528C12.885 5.28943 12.5033 4.91138 12.045 4.64859C11.5866 4.38579 11.0675 4.2474 10.5392 4.24718V5.50293C10.8483 5.50342 11.152 5.58463 11.4201 5.73852C11.6882 5.8924 11.9115 6.11363 12.0679 6.38032C12.2242 6.647 12.3083 6.9499 12.3116 7.25903C12.315 7.56815 12.2376 7.8728 12.087 8.14281L13.1816 8.75702Z" fill="white"/>
<path d="M9.81411 0V1.25575C10.917 1.25599 12 1.54919 12.9524 2.10538C13.9048 2.66157 14.6923 3.4608 15.2345 4.42125C15.7766 5.3817 16.0539 6.46891 16.0379 7.57168C16.022 8.67446 15.7133 9.75319 15.1436 10.6975L16.2179 11.3471C16.9029 10.2123 17.274 8.91589 17.2934 7.59055C17.3128 6.26522 16.9797 4.95853 16.3283 3.80418C15.6768 2.64984 14.7304 1.6893 13.5858 1.02084C12.4412 0.352387 11.1396 0.000228993 9.81411 0Z" fill="white"/>
</svg>
